<svg width="127" height="148" viewBox="0 0 127 148" fill="none" xmlns="http://www.w3.org/2000/svg">
<circle cx="63.5" cy="63.5" r="63.5" fill="#EDF6FF"/>
<mask id="mask0_670_21937" style="mask-type:alpha" maskUnits="userSpaceOnUse" x="-7" y="-8" width="170" height="170">
<circle cx="77.7899" cy="77.293" r="84.5" fill="#D9D9D9"/>
</mask>
<g mask="url(#mask0_670_21937)">
<path d="M65.436 75.4986C65.436 79.9211 76.256 86.3465 93.2116 86.3465C110.168 86.3465 120.988 79.9221 120.988 75.4986C120.988 71.0751 110.168 64.6516 93.2116 64.6516C76.256 64.6516 65.436 71.0761 65.436 75.4986Z" fill="#AFCFFF"/>
<path d="M93.2116 104.189C110.168 104.189 120.988 97.764 120.988 93.3414C120.988 92.227 120.362 91.0443 119.125 89.8295L118.436 89.1519C112.057 92.4188 103.243 94.3796 93.2116 94.3796C83.1981 94.3796 74.3981 92.4258 68.0219 89.1699L67.7762 89.3858C66.7078 90.3255 65.436 91.7732 65.436 93.3424C65.436 97.764 76.256 104.189 93.2116 104.189Z" fill="#90BCFF"/>
<path d="M93.2115 122.195C110.168 122.195 120.988 115.771 120.988 111.348C120.988 110.194 120.318 108.97 118.998 107.712L118.31 107.057C111.94 110.285 103.177 112.221 93.2105 112.221C83.2112 112.221 74.4223 110.272 68.0481 107.024L67.0139 108.127C65.9666 109.242 65.437 110.325 65.437 111.348C65.4359 115.771 76.256 122.195 93.2115 122.195Z" fill="#90BCFF"/>
<path d="M57.3801 111.349C57.3801 108.267 58.6771 105.257 61.1311 102.641L61.4241 102.329C58.8312 99.6855 57.3801 96.6394 57.3801 93.3423C57.3801 90.1517 58.7506 87.0896 61.3506 84.41C58.805 81.7846 57.3801 78.7656 57.3801 75.5007C57.3801 64.7381 72.7849 56.6209 93.2115 56.6209C93.4089 56.6209 93.6033 56.6269 93.7996 56.6279V21.793H20.2899V122.191H63.5166C59.6206 119.162 57.3801 115.448 57.3801 111.349ZM31.6608 32.7945H81.8417V40.8264H31.6608V32.7945ZM47.8138 56.4302H31.6608V48.3983H47.8138V56.4302Z" fill="#90BCFF"/>
</g>
</svg>
